<svg width="44" height="44" viewBox="0 0 44 44" fill="none" xmlns="http://www.w3.org/2000/svg">
<circle cx="22" cy="22" r="22" fill="#6151FF" fill-opacity="0.07"/>
<path d="M22.0011 31.25C22.0011 31.25 12.6261 26 12.6261 19.625C12.6263 18.4983 13.0167 17.4063 13.731 16.5349C14.4453 15.6635 15.4393 15.0664 16.5441 14.845C17.6489 14.6237 18.7962 14.7918 19.7911 15.3208C20.7859 15.8498 21.5669 16.707 22.0011 17.7467L22.0011 17.7467C22.4353 16.707 23.2163 15.8498 24.2111 15.3208C25.206 14.7918 26.3533 14.6237 27.4581 14.845C28.5629 15.0664 29.5569 15.6635 30.2712 16.5349C30.9855 17.4063 31.3759 18.4983 31.3761 19.625C31.3761 26 22.0011 31.25 22.0011 31.25Z" fill="#6151FF"/>
</svg>
