<svg width="41" height="40" viewBox="0 0 41 40" fill="none" xmlns="http://www.w3.org/2000/svg">
<g id="ShoppingBag">
<path id="Vector" d="M34.6667 6.25H7.16669C6.50388 6.25076 5.86843 6.51439 5.39976 6.98307C4.93108 7.45175 4.66745 8.08719 4.66669 8.75V31.25C4.66745 31.9128 4.93108 32.5483 5.39976 33.0169C5.86843 33.4856 6.50388 33.7492 7.16669 33.75H34.6667C35.3295 33.7492 35.9649 33.4856 36.4336 33.0169C36.9023 32.5483 37.1659 31.9128 37.1667 31.25V8.75C37.1659 8.08719 36.9023 7.45175 36.4336 6.98307C35.9649 6.51439 35.3295 6.25076 34.6667 6.25ZM20.9167 21.25C18.9282 21.2478 17.0219 20.4569 15.6159 19.0508C14.2098 17.6448 13.4189 15.7384 13.4167 13.75C13.4167 13.4185 13.5484 13.1005 13.7828 12.8661C14.0172 12.6317 14.3352 12.5 14.6667 12.5C14.9982 12.5 15.3161 12.6317 15.5506 12.8661C15.785 13.1005 15.9167 13.4185 15.9167 13.75C15.9167 15.0761 16.4435 16.3479 17.3812 17.2855C18.3188 18.2232 19.5906 18.75 20.9167 18.75C22.2428 18.75 23.5145 18.2232 24.4522 17.2855C25.3899 16.3479 25.9167 15.0761 25.9167 13.75C25.9167 13.4185 26.0484 13.1005 26.2828 12.8661C26.5172 12.6317 26.8352 12.5 27.1667 12.5C27.4982 12.5 27.8162 12.6317 28.0506 12.8661C28.285 13.1005 28.4167 13.4185 28.4167 13.75C28.4145 15.7384 27.6236 17.6448 26.2175 19.0508C24.8115 20.4569 22.9051 21.2478 20.9167 21.25Z" fill="#6151FF"/>
</g>
</svg>
